<mxfile host="app.diagrams.net" modified="2020-12-01T07:08:18.264Z" agent="5.0 (Windows NT 10.0; Win64; x64) AppleWebKit/537.36 (KHTML, like Gecko) Chrome/87.0.4280.66 Safari/537.36" etag="nanesfOvMgF4XT-DJO0j" version="13.10.4" type="github">
  <diagram id="271-Rd3l_Wsmkpzg0y0T" name="Page-1">
    <mxGraphModel dx="1117" dy="670" grid="1" gridSize="10" guides="1" tooltips="1" connect="1" arrows="1" fold="1" page="1" pageScale="1" pageWidth="850" pageHeight="1100" math="0" shadow="0">
      <root>
        <mxCell id="0" />
        <mxCell id="1" parent="0" />
        <mxCell id="g5uEIrBwNdARXbEu3ijD-28" value="" style="rounded=0;whiteSpace=wrap;html=1;" vertex="1" parent="1">
          <mxGeometry x="300" y="440" width="20" height="60" as="geometry" />
        </mxCell>
        <mxCell id="g5uEIrBwNdARXbEu3ijD-29" value="" style="rounded=0;whiteSpace=wrap;html=1;" vertex="1" parent="1">
          <mxGeometry x="90" y="440" width="20" height="60" as="geometry" />
        </mxCell>
        <mxCell id="g5uEIrBwNdARXbEu3ijD-27" value="" style="rounded=0;whiteSpace=wrap;html=1;" vertex="1" parent="1">
          <mxGeometry x="520" y="440" width="20" height="60" as="geometry" />
        </mxCell>
        <mxCell id="g5uEIrBwNdARXbEu3ijD-1" value="" style="rounded=0;whiteSpace=wrap;html=1;" vertex="1" parent="1">
          <mxGeometry x="40" y="10" width="540" height="220" as="geometry" />
        </mxCell>
        <mxCell id="g5uEIrBwNdARXbEu3ijD-2" value="" style="shape=cylinder3;whiteSpace=wrap;html=1;boundedLbl=1;backgroundOutline=1;size=15;" vertex="1" parent="1">
          <mxGeometry x="220" y="40" width="100" height="130" as="geometry" />
        </mxCell>
        <mxCell id="g5uEIrBwNdARXbEu3ijD-4" value="" style="rounded=0;whiteSpace=wrap;html=1;" vertex="1" parent="1">
          <mxGeometry x="70" y="40" width="100" height="130" as="geometry" />
        </mxCell>
        <mxCell id="g5uEIrBwNdARXbEu3ijD-5" value="" style="rounded=0;whiteSpace=wrap;html=1;" vertex="1" parent="1">
          <mxGeometry x="385" y="50" width="130" height="110" as="geometry" />
        </mxCell>
        <mxCell id="g5uEIrBwNdARXbEu3ijD-8" value="" style="rounded=1;whiteSpace=wrap;html=1;" vertex="1" parent="1">
          <mxGeometry x="390" y="60" width="120" height="90" as="geometry" />
        </mxCell>
        <mxCell id="g5uEIrBwNdARXbEu3ijD-12" value="" style="endArrow=classic;startArrow=classic;html=1;" edge="1" parent="1">
          <mxGeometry width="50" height="50" relative="1" as="geometry">
            <mxPoint x="515" y="110" as="sourcePoint" />
            <mxPoint x="670" y="110" as="targetPoint" />
          </mxGeometry>
        </mxCell>
        <mxCell id="g5uEIrBwNdARXbEu3ijD-13" value="" style="endArrow=classic;startArrow=classic;html=1;entryX=0;entryY=0.5;entryDx=0;entryDy=0;exitX=1;exitY=0.5;exitDx=0;exitDy=0;exitPerimeter=0;" edge="1" parent="1" source="g5uEIrBwNdARXbEu3ijD-2" target="g5uEIrBwNdARXbEu3ijD-8">
          <mxGeometry width="50" height="50" relative="1" as="geometry">
            <mxPoint x="320" y="110" as="sourcePoint" />
            <mxPoint x="370" y="60" as="targetPoint" />
          </mxGeometry>
        </mxCell>
        <mxCell id="g5uEIrBwNdARXbEu3ijD-14" value="" style="whiteSpace=wrap;html=1;aspect=fixed;" vertex="1" parent="1">
          <mxGeometry x="270" y="380" width="80" height="80" as="geometry" />
        </mxCell>
        <mxCell id="g5uEIrBwNdARXbEu3ijD-15" value="" style="rounded=0;whiteSpace=wrap;html=1;" vertex="1" parent="1">
          <mxGeometry x="250" y="480" width="120" height="30" as="geometry" />
        </mxCell>
        <mxCell id="g5uEIrBwNdARXbEu3ijD-16" value="" style="ellipse;shape=cloud;whiteSpace=wrap;html=1;" vertex="1" parent="1">
          <mxGeometry x="190" y="260" width="220" height="100" as="geometry" />
        </mxCell>
        <mxCell id="g5uEIrBwNdARXbEu3ijD-18" value="" style="whiteSpace=wrap;html=1;aspect=fixed;" vertex="1" parent="1">
          <mxGeometry x="60" y="380" width="80" height="80" as="geometry" />
        </mxCell>
        <mxCell id="g5uEIrBwNdARXbEu3ijD-19" value="" style="rounded=0;whiteSpace=wrap;html=1;" vertex="1" parent="1">
          <mxGeometry x="40" y="480" width="120" height="30" as="geometry" />
        </mxCell>
        <mxCell id="g5uEIrBwNdARXbEu3ijD-20" value="" style="whiteSpace=wrap;html=1;aspect=fixed;" vertex="1" parent="1">
          <mxGeometry x="490" y="380" width="80" height="80" as="geometry" />
        </mxCell>
        <mxCell id="g5uEIrBwNdARXbEu3ijD-21" value="" style="rounded=0;whiteSpace=wrap;html=1;" vertex="1" parent="1">
          <mxGeometry x="470" y="480" width="120" height="30" as="geometry" />
        </mxCell>
        <mxCell id="g5uEIrBwNdARXbEu3ijD-24" value="" style="curved=1;endArrow=classic;html=1;entryX=0.55;entryY=0.95;entryDx=0;entryDy=0;entryPerimeter=0;" edge="1" parent="1" target="g5uEIrBwNdARXbEu3ijD-16">
          <mxGeometry width="50" height="50" relative="1" as="geometry">
            <mxPoint x="285" y="380" as="sourcePoint" />
            <mxPoint x="335" y="330" as="targetPoint" />
            <Array as="points">
              <mxPoint x="335" y="380" />
              <mxPoint x="335" y="330" />
              <mxPoint x="285" y="330" />
            </Array>
          </mxGeometry>
        </mxCell>
        <mxCell id="g5uEIrBwNdARXbEu3ijD-26" value="" style="curved=1;endArrow=classic;html=1;entryX=0.13;entryY=0.77;entryDx=0;entryDy=0;entryPerimeter=0;exitX=0.5;exitY=0;exitDx=0;exitDy=0;" edge="1" parent="1" source="g5uEIrBwNdARXbEu3ijD-18" target="g5uEIrBwNdARXbEu3ijD-16">
          <mxGeometry width="50" height="50" relative="1" as="geometry">
            <mxPoint x="110" y="330" as="sourcePoint" />
            <mxPoint x="160" y="280" as="targetPoint" />
            <Array as="points">
              <mxPoint x="160" y="330" />
              <mxPoint x="110" y="280" />
            </Array>
          </mxGeometry>
        </mxCell>
        <mxCell id="g5uEIrBwNdARXbEu3ijD-30" value="" style="ellipse;shape=cloud;whiteSpace=wrap;html=1;" vertex="1" parent="1">
          <mxGeometry x="630" y="20" width="310" height="170" as="geometry" />
        </mxCell>
        <mxCell id="g5uEIrBwNdARXbEu3ijD-31" value="" style="endArrow=classic;startArrow=classic;html=1;entryX=0.481;entryY=0.909;entryDx=0;entryDy=0;entryPerimeter=0;" edge="1" parent="1" target="g5uEIrBwNdARXbEu3ijD-1">
          <mxGeometry width="50" height="50" relative="1" as="geometry">
            <mxPoint x="300" y="274" as="sourcePoint" />
            <mxPoint x="280" y="220" as="targetPoint" />
          </mxGeometry>
        </mxCell>
        <mxCell id="g5uEIrBwNdARXbEu3ijD-35" value="Geidea VM Server" style="text;html=1;strokeColor=none;fillColor=none;align=center;verticalAlign=middle;whiteSpace=wrap;rounded=0;fontSize=20;" vertex="1" parent="1">
          <mxGeometry x="330" y="180" width="210" height="40" as="geometry" />
        </mxCell>
        <mxCell id="g5uEIrBwNdARXbEu3ijD-36" value="IIS" style="text;html=1;strokeColor=none;fillColor=none;align=center;verticalAlign=middle;whiteSpace=wrap;rounded=0;fontSize=25;" vertex="1" parent="1">
          <mxGeometry x="80" y="120" width="60" height="50" as="geometry" />
        </mxCell>
        <mxCell id="g5uEIrBwNdARXbEu3ijD-37" value="" style="rounded=1;whiteSpace=wrap;html=1;fontSize=25;" vertex="1" parent="1">
          <mxGeometry x="80" y="50" width="80" height="30" as="geometry" />
        </mxCell>
        <mxCell id="g5uEIrBwNdARXbEu3ijD-38" value="" style="rounded=1;whiteSpace=wrap;html=1;fontSize=25;" vertex="1" parent="1">
          <mxGeometry x="80" y="90" width="80" height="30" as="geometry" />
        </mxCell>
        <mxCell id="g5uEIrBwNdARXbEu3ijD-39" value="&lt;font style=&quot;font-size: 12px;&quot;&gt;API GBB&lt;/font&gt;" style="text;html=1;strokeColor=none;fillColor=none;align=center;verticalAlign=middle;whiteSpace=wrap;rounded=0;fontSize=12;" vertex="1" parent="1">
          <mxGeometry x="90" y="55" width="60" height="20" as="geometry" />
        </mxCell>
        <mxCell id="g5uEIrBwNdARXbEu3ijD-40" style="edgeStyle=orthogonalEdgeStyle;rounded=0;orthogonalLoop=1;jettySize=auto;html=1;exitX=0;exitY=0.25;exitDx=0;exitDy=0;entryX=0;entryY=0;entryDx=0;entryDy=0;fontSize=11;" edge="1" parent="1" source="g5uEIrBwNdARXbEu3ijD-37" target="g5uEIrBwNdARXbEu3ijD-37">
          <mxGeometry relative="1" as="geometry" />
        </mxCell>
        <mxCell id="g5uEIrBwNdARXbEu3ijD-41" value="&lt;font style=&quot;font-size: 12px&quot;&gt;TMS GBB&lt;/font&gt;" style="text;html=1;strokeColor=none;fillColor=none;align=center;verticalAlign=middle;whiteSpace=wrap;rounded=0;fontSize=12;" vertex="1" parent="1">
          <mxGeometry x="90" y="95" width="60" height="20" as="geometry" />
        </mxCell>
        <mxCell id="g5uEIrBwNdARXbEu3ijD-44" value="" style="endArrow=classic;startArrow=classic;html=1;fontSize=12;entryX=-0.013;entryY=0.541;entryDx=0;entryDy=0;entryPerimeter=0;" edge="1" parent="1" target="g5uEIrBwNdARXbEu3ijD-2">
          <mxGeometry width="50" height="50" relative="1" as="geometry">
            <mxPoint x="170" y="110" as="sourcePoint" />
            <mxPoint x="220" y="60" as="targetPoint" />
          </mxGeometry>
        </mxCell>
        <mxCell id="g5uEIrBwNdARXbEu3ijD-45" value="SQL DB" style="text;html=1;strokeColor=none;fillColor=none;align=center;verticalAlign=middle;whiteSpace=wrap;rounded=0;fontSize=12;" vertex="1" parent="1">
          <mxGeometry x="230" y="70" width="80" height="30" as="geometry" />
        </mxCell>
        <mxCell id="g5uEIrBwNdARXbEu3ijD-46" value="Sessions Cache" style="text;html=1;strokeColor=none;fillColor=none;align=center;verticalAlign=middle;whiteSpace=wrap;rounded=0;fontSize=12;" vertex="1" parent="1">
          <mxGeometry x="240" y="110" width="60" height="30" as="geometry" />
        </mxCell>
        <mxCell id="g5uEIrBwNdARXbEu3ijD-47" value="TMS DOWNLOAD ENGINE" style="text;html=1;strokeColor=none;fillColor=none;align=center;verticalAlign=middle;whiteSpace=wrap;rounded=0;fontSize=12;" vertex="1" parent="1">
          <mxGeometry x="390" y="60" width="120" height="50" as="geometry" />
        </mxCell>
        <mxCell id="g5uEIrBwNdARXbEu3ijD-49" value="" style="shape=process;whiteSpace=wrap;html=1;backgroundOutline=1;fontSize=12;" vertex="1" parent="1">
          <mxGeometry x="410" y="110" width="80" height="30" as="geometry" />
        </mxCell>
        <mxCell id="g5uEIrBwNdARXbEu3ijD-50" value="Internet Cloud" style="text;html=1;strokeColor=none;fillColor=none;align=center;verticalAlign=middle;whiteSpace=wrap;rounded=0;fontSize=23;" vertex="1" parent="1">
          <mxGeometry x="230" y="290" width="150" height="40" as="geometry" />
        </mxCell>
        <mxCell id="g5uEIrBwNdARXbEu3ijD-51" value="SAMA Cloud" style="text;html=1;strokeColor=none;fillColor=none;align=center;verticalAlign=middle;whiteSpace=wrap;rounded=0;fontSize=25;" vertex="1" parent="1">
          <mxGeometry x="710" y="60" width="170" height="90" as="geometry" />
        </mxCell>
        <mxCell id="g5uEIrBwNdARXbEu3ijD-52" value="WEB CLIENT" style="text;html=1;strokeColor=none;fillColor=none;align=center;verticalAlign=middle;whiteSpace=wrap;rounded=0;fontSize=12;" vertex="1" parent="1">
          <mxGeometry x="70" y="390" width="60" height="60" as="geometry" />
        </mxCell>
        <mxCell id="g5uEIrBwNdARXbEu3ijD-53" value="WEB CLIENT" style="text;html=1;strokeColor=none;fillColor=none;align=center;verticalAlign=middle;whiteSpace=wrap;rounded=0;fontSize=12;" vertex="1" parent="1">
          <mxGeometry x="280" y="390" width="60" height="60" as="geometry" />
        </mxCell>
        <mxCell id="g5uEIrBwNdARXbEu3ijD-54" value="WEB CLIENT" style="text;html=1;strokeColor=none;fillColor=none;align=center;verticalAlign=middle;whiteSpace=wrap;rounded=0;fontSize=12;" vertex="1" parent="1">
          <mxGeometry x="500" y="390" width="60" height="60" as="geometry" />
        </mxCell>
        <mxCell id="g5uEIrBwNdARXbEu3ijD-55" value="" style="curved=1;endArrow=classic;html=1;fontSize=12;exitX=0.375;exitY=0;exitDx=0;exitDy=0;exitPerimeter=0;" edge="1" parent="1" source="g5uEIrBwNdARXbEu3ijD-20">
          <mxGeometry width="50" height="50" relative="1" as="geometry">
            <mxPoint x="450" y="280" as="sourcePoint" />
            <mxPoint x="400" y="330" as="targetPoint" />
            <Array as="points">
              <mxPoint x="490" y="350" />
              <mxPoint x="480" y="340" />
              <mxPoint x="460" y="340" />
              <mxPoint x="440" y="360" />
            </Array>
          </mxGeometry>
        </mxCell>
      </root>
    </mxGraphModel>
  </diagram>
</mxfile>
